# xmcd
# 
# Track frame offsets:
#     150
#     19472
#     38670
#     56742
#     74057
#     92785
#     114727
#     131045
#     148602
#     166040
#     183755
# 
# Disc length: 2689
# 
# Revision: 21
# Processed by: cddbd v1.5.2PL0 Copyright (c) Steve Scherf et al.
# Submitted via: fre:ac v1.0.17
# 
DISCID=9e0a7f0b
DTITLE=Il Divo - Ancora
DYEAR=2005
DGENRE=Vocal
TTITLE0=Heroe
TTITLE1=Isabel
TTITLE2=I Believe In You (Je Crois En Toi)
TTITLE3=Unchained Melody (Senza Catene)
TTITLE4=Si Tú Me Amas
TTITLE5=Ave Maria
TTITLE6=Hasta Mi Final
TTITLE7=All By Myself (Solo Otra Vez)
TTITLE8=En Aranjuez Con Tu Amor
TTITLE9=Pour Que Tu M'Aimes Encore
TTITLE10=O Holy Night
EXTD=YEAR: 2005
EXTT0=
EXTT1=
EXTT2=
EXTT3=
EXTT4=
EXTT5=
EXTT6=
EXTT7=
EXTT8=
EXTT9=
EXTT10=
PLAYORDER=
